<?xml version="1.0" encoding="UTF-8"?>
<svg version="1.1" xmlns="http://www.w3.org/2000/svg" width="544" height="650">
<path d="M0 0 C179.52 0 359.04 0 544 0 C544 214.5 544 429 544 650 C364.48 650 184.96 650 0 650 C0 435.5 0 221 0 0 Z " fill="#FEFEFE" transform="translate(0,0)"/>
<path d="M0 0 C179.52 0 359.04 0 544 0 C544 214.5 544 429 544 650 C364.48 650 184.96 650 0 650 C0 435.5 0 221 0 0 Z M88 46 C87.08734375 46.43054687 86.1746875 46.86109375 85.234375 47.3046875 C64.85925559 57.60867646 52.1275657 75.7784938 44.91015625 96.94140625 C43.40223826 102.00878729 42.87283541 106.51540698 42.8601923 111.81190777 C42.85724088 112.48763373 42.85428945 113.16335969 42.85124859 113.85956219 C42.84257308 116.12828514 42.84097836 118.39695702 42.83937073 120.66569519 C42.83463864 122.30710337 42.82948757 123.94851038 42.82395309 125.58991605 C42.81005405 130.10449512 42.80246536 134.61906614 42.7959801 139.13366115 C42.78960596 143.0052322 42.7795362 146.87679004 42.76941944 150.74835285 C42.73610181 163.50564553 42.71457289 176.26294625 42.69621959 189.02026817 C42.6914232 192.34372215 42.68644003 195.6671758 42.68141437 198.99062943 C42.65043695 219.63994948 42.62375823 240.28927235 42.60699558 260.93860912 C42.60304623 265.72136121 42.59904322 270.50411325 42.5949707 275.28686523 C42.59396234 276.47556205 42.59295398 277.66425886 42.59191506 278.88897679 C42.5749232 298.12741196 42.53383073 317.36571815 42.48294771 336.60409041 C42.43110546 356.36825211 42.40204444 376.1323476 42.3947987 395.8965767 C42.39014431 406.98824936 42.37547577 418.07971097 42.3350544 429.17131615 C42.30065544 438.62176004 42.28685486 448.0719548 42.29947854 457.52245768 C42.30528268 462.33898326 42.30160084 467.15498261 42.2713089 471.97142792 C42.24372848 476.39312164 42.24460679 480.81392074 42.26681935 485.23563627 C42.27001325 486.82329314 42.2633466 488.41101232 42.24502213 489.99856665 C42.02930603 509.91765664 49.15579491 528.73986109 62 544 C62.763125 545.010625 63.52625 546.02125 64.3125 547.0625 C70.48592904 553.8102015 77.54611659 558.53130181 85.5625 562.8125 C86.25827148 563.18544189 86.95404297 563.55838379 87.67089844 563.94262695 C100.16455666 570.40178382 112.98908907 572.3064989 126.96286011 572.27415466 C128.10506897 572.27939134 129.24727783 572.28462802 130.42409909 572.29002339 C134.21880418 572.30492226 138.01337323 572.30572632 141.80810547 572.30639648 C144.54262423 572.31295196 147.27713154 572.3224061 150.01164246 572.33161926 C157.41919711 572.35436307 164.82672292 572.36237868 172.23430777 572.36744571 C176.87121724 572.37071577 181.50811852 572.37724613 186.14502335 572.3844471 C199.01643288 572.40400078 211.88783484 572.42041166 224.75926018 572.42332363 C225.58120312 572.4235112 226.40314607 572.42369877 227.24999637 572.42389202 C228.91584182 572.42425824 230.58168726 572.42462194 232.24753271 572.42498314 C233.48770421 572.42525735 233.48770421 572.42525735 234.75292969 572.42553711 C235.58073559 572.42571766 236.40854149 572.42589821 237.26143242 572.42608423 C250.65422208 572.42962072 264.04685044 572.45661571 277.43958424 572.494035 C291.23301029 572.53226117 305.02635661 572.55148216 318.81983674 572.55178314 C326.54686115 572.55236458 334.27369318 572.56065162 342.00066757 572.58978081 C348.58413434 572.61448738 355.16733861 572.62144961 361.7508394 572.60653328 C365.09969704 572.59944123 368.44762363 572.60268971 371.79648781 572.62294388 C399.96957326 572.78279882 425.72692372 568.80380048 446.60253906 548.44140625 C454.34484439 540.45563221 459.57365291 531.12030062 464 521 C464.45816793 519.96393049 464.91633587 518.92786098 465.38838768 517.86039543 C470.35202308 504.56171351 469.71585633 490.8285024 469.65362334 476.82758474 C469.64220023 473.01846056 469.65982574 469.20944636 469.67352295 465.40034485 C469.69564045 457.96081559 469.69100697 450.52153995 469.67645974 443.08200116 C469.66512702 437.03410683 469.66365394 430.98628312 469.66907883 424.9383812 C469.66984499 424.07474819 469.67061116 423.21111519 469.67140054 422.3213115 C469.67299929 420.56645233 469.67462036 418.81159319 469.6762635 417.05673407 C469.69048598 400.64212569 469.67418076 384.22765746 469.64726166 367.81307207 C469.62490217 353.74314997 469.62882683 339.67343406 469.65185547 325.60351562 C469.67863434 309.23480079 469.68913805 292.86620823 469.67379415 276.49747455 C469.67220151 274.75122446 469.67062965 273.00497434 469.66907883 271.25872421 C469.66830745 270.39968462 469.66753607 269.54064503 469.66674132 268.65557394 C469.66243236 262.61521271 469.66969298 256.57492939 469.68147659 250.53458023 C469.69552231 243.17350719 469.69165727 235.81270062 469.66507287 228.45165797 C469.65196604 224.69936506 469.64672849 220.94751592 469.66331863 217.19522667 C469.68105394 213.12229083 469.65982666 209.05046777 469.63491821 204.97756958 C469.64607182 203.79974509 469.65722543 202.62192061 469.66871703 201.40840447 C469.55465291 191.78247097 466.73073056 184.27001331 460.03149414 177.22729492 C459.24960724 176.39918304 458.46772034 175.57107117 457.66213989 174.71786499 C456.78363373 173.82096954 455.90512756 172.9240741 455 172 C454.51461132 171.50188938 454.02922264 171.00377876 453.52912521 170.49057388 C449.55132303 166.41477876 445.52688677 162.38656823 441.49609375 158.36328125 C440.20518187 157.07169385 438.91441831 155.7799582 437.62379456 154.48808289 C434.93514163 151.79796574 432.24471439 149.10963966 429.55297852 146.42260742 C426.12142143 142.99675839 422.69439027 139.56642249 419.2686758 136.13473225 C416.61005543 133.4724815 413.94903718 130.81263775 411.28730965 128.15349388 C410.02323308 126.89007914 408.75988432 125.62593575 407.49731255 124.36101723 C401.84031176 118.69580429 396.21115397 113.09311729 390.11839294 107.89378357 C384.83816904 103.17341226 379.9215486 98.04130569 374.92578125 93.0234375 C373.67145952 91.76724621 372.41691351 90.51127884 371.16215515 89.25552368 C367.87890809 85.96848337 364.59867363 82.67845304 361.3190918 79.38775635 C357.98472745 76.04314834 354.64752287 72.70137697 351.31054688 69.359375 C345.92196153 63.96203449 340.53506799 58.56301269 335.15052795 53.16163635 C333.7672722 51.7741714 332.38364392 50.38707786 331 49 C330.11600021 48.10278229 329.23200043 47.20556458 328.32121277 46.28115845 C321.1141317 39.19844114 313.35888879 37.68929533 303.66001892 37.73930359 C302.85930719 37.73547804 302.05859547 37.73165249 301.23361975 37.72771102 C298.57096143 37.71745537 295.90852177 37.72135901 293.24584961 37.7253418 C291.32814333 37.72099103 289.41043879 37.71580666 287.49273682 37.70985413 C282.29606847 37.69648757 277.09947297 37.69588319 271.90279078 37.69841743 C267.55447291 37.69948941 263.20616964 37.69459761 258.8578549 37.689812 C248.58955161 37.67872345 238.3212849 37.67827479 228.05297852 37.68432617 C217.48870153 37.69035676 206.92455803 37.67807669 196.36030382 37.6567561 C187.2686796 37.63908767 178.17709765 37.63314726 169.08545691 37.63639385 C163.66527621 37.63819958 158.24519059 37.6356424 152.82502556 37.62167931 C147.72039817 37.60902122 142.61597708 37.61111992 137.51135254 37.62409019 C135.64869171 37.6264388 133.78601601 37.62378366 131.92337227 37.61546707 C116.23791259 37.55054139 102.34900811 39.06332481 88 46 Z " fill="#FEFEFE" transform="translate(0,0)"/>
<path d="M0 0 C1.92640886 -0.00435448 3.85281598 -0.00954006 5.77922058 -0.01548767 C10.97944853 -0.0288058 16.17960348 -0.02946468 21.37984514 -0.02692437 C25.73132034 -0.02585035 30.08278103 -0.03074872 34.4342531 -0.03552979 C44.70145986 -0.04659885 54.96863001 -0.04707623 65.23583984 -0.04101562 C75.8105242 -0.03496943 86.38507572 -0.04730925 96.95973742 -0.06858569 C106.05985663 -0.08621871 115.1599336 -0.0922006 124.26006925 -0.08894795 C129.68617903 -0.0871386 135.11219389 -0.08973707 140.53828812 -0.10366249 C145.63884936 -0.11626487 150.73920356 -0.11427391 155.83976173 -0.1012516 C157.7061387 -0.09889201 159.57253035 -0.10159828 161.43889046 -0.10987473 C174.45488541 -0.16341326 185.66231528 -0.07456631 195.71240234 9.2746582 C196.71145869 10.3874908 197.6884153 11.52043264 198.64624023 12.66894531 C203.97761162 18.83843699 209.8158308 24.52194039 215.58349609 30.27856445 C216.83242615 31.52816965 218.08120785 32.77792313 219.32984924 34.02781677 C221.93629665 36.63573125 224.54452528 39.24184727 227.15405273 41.84667969 C230.48028756 45.16721786 233.80201169 48.49222632 237.12240505 51.81860447 C239.69696057 54.39679246 242.2739165 56.97257065 244.85157967 59.54765129 C246.07658103 60.7719908 247.30085454 61.99705904 248.52435112 63.2229023 C255.90510876 70.68091988 255.90510876 70.68091988 263.66699219 77.73364258 C269.91494818 83.07098632 275.62750868 89.00385026 281.44287109 94.80200195 C282.41543571 95.7703255 282.41543571 95.7703255 283.40764809 96.75821114 C286.83313709 100.16879516 290.25580658 103.58217804 293.67602539 106.99804688 C297.19286546 110.50938822 300.71890137 114.01134139 304.2471571 117.51120663 C306.97608748 120.22145839 309.69823348 122.93844843 312.4186039 125.65728951 C313.7153888 126.95106359 315.01465549 128.24235539 316.31651878 129.53101921 C318.13953552 131.33685167 319.95270947 133.15205898 321.76391602 134.96972656 C322.29441559 135.49101135 322.82491516 136.01229614 323.37149048 136.54937744 C329.69544194 142.94374429 334.95071926 150.48364249 334.97525787 159.72785473 C334.98294016 160.81701221 334.99062245 161.90616969 334.99853754 163.02833194 C334.99680458 164.21935639 334.99507161 165.41038084 334.99328613 166.63749695 C334.99922838 167.90722078 335.00517062 169.17694461 335.01129293 170.48514491 C335.02740912 174.00780604 335.03101076 177.53038562 335.03248787 181.05307925 C335.03619347 184.85366598 335.05129104 188.65421061 335.0647583 192.45477295 C335.0919152 200.76739795 335.10397457 209.08000364 335.11277962 217.39266562 C335.11830955 222.58882094 335.12678552 227.78496885 335.13578796 232.98111916 C335.16017852 247.38177237 335.1807719 261.78241965 335.18753815 276.18309307 C335.18819685 277.56558097 335.18819685 277.56558097 335.18886885 278.97599791 C335.18930541 279.89981787 335.18974196 280.82363782 335.19019175 281.77545232 C335.19107866 283.64733931 335.19197179 285.5192263 335.19287109 287.39111328 C335.19353538 288.78388327 335.19353538 288.78388327 335.19421309 290.20479003 C335.2020959 305.22384274 335.23696118 320.24270058 335.28359014 335.26167812 C335.33113211 350.70016046 335.35594728 366.13854533 335.35827398 381.57710201 C335.36010177 390.23751577 335.37145995 398.89767607 335.40791321 407.55801964 C335.43887185 414.93888745 335.44886539 422.31942358 335.432437 429.70034405 C335.42467674 433.45972842 335.4262181 437.2184466 335.4545517 440.97774696 C335.56630908 456.7108531 335.24923925 470.74526571 328.71240234 485.2746582 C328.19374855 486.45373591 327.67509476 487.63281363 327.14072418 488.84762096 C324.16014836 495.37156294 320.31410696 500.80739486 315.71240234 506.2746582 C314.94927734 507.2852832 314.18615234 508.2959082 313.39990234 509.3371582 C298.40784874 525.72382144 277.11269722 533.55584986 255.2728138 534.72758484 C248.0678696 534.96588251 240.865739 534.92910114 233.65795898 534.88989258 C230.91059884 534.8906333 228.16327193 534.89887601 225.41592407 534.90670776 C218.78564408 534.92109195 212.15567467 534.90914834 205.52542437 534.88759452 C197.7817166 534.86336136 190.03807662 534.86531226 182.29433935 534.86790043 C168.46968132 534.87157455 154.64516802 534.85089998 140.82055664 534.81665039 C127.44421742 534.78352433 114.06802981 534.76940161 100.69165039 534.77563477 C86.07015707 534.78241476 71.44872684 534.77989643 56.82724279 534.76027536 C56.05262387 534.75923588 55.27800496 534.75819639 54.47991274 534.75712541 C52.9247543 534.75503475 51.36959588 534.75292378 49.8144375 534.75079224 C44.43161021 534.7439305 39.0488025 534.74322158 33.66597176 534.74467468 C27.10123388 534.7461215 20.53661865 534.73629396 13.97192133 534.71272832 C10.63015484 534.70095575 7.28869979 534.69530917 3.94689369 534.69956589 C-14.05735507 534.71811722 -29.79303527 534.2367637 -46.28759766 526.2746582 C-47.18865234 525.85571289 -48.08970703 525.43676758 -49.01806641 525.00512695 C-69.17685642 514.91118736 -81.84988667 496.94490981 -88.95104027 475.8837347 C-91.67024113 467.29390233 -91.99175456 459.22548899 -91.92251587 450.2794342 C-91.92829249 448.62781226 -91.93624386 446.97619677 -91.94615209 445.32459444 C-91.96683759 440.83275603 -91.95679459 436.34145537 -91.941221 431.84961617 C-91.92983557 426.98718751 -91.94740568 422.1248467 -91.96112061 417.26243591 C-91.98328175 407.75512785 -91.97858353 398.24801785 -91.9640574 388.74070222 C-91.95273636 381.00904319 -91.95124663 373.27743941 -91.95667648 365.54577446 C-91.95744265 364.44270609 -91.95820881 363.33963772 -91.9589982 362.20314304 C-91.96059693 359.961825 -91.962218 357.72050698 -91.96386115 355.47918897 C-91.97809797 334.49240717 -91.96175875 313.50573481 -91.93485932 292.51897096 C-91.91252556 274.5381459 -91.9164006 256.5574823 -91.93945312 238.57666016 C-91.96625306 217.66328621 -91.9767216 196.75000804 -91.96139181 175.83661932 C-91.95979917 173.60353213 -91.95822732 171.37044493 -91.95667648 169.13735771 C-91.95590511 168.03882551 -91.95513373 166.94029332 -91.95433898 165.80847226 C-91.95003432 158.09275603 -91.9572819 150.37710089 -91.96907425 142.66139412 C-91.98314458 133.24887009 -91.97920448 123.83655436 -91.95267053 114.42405397 C-91.93959269 109.62791416 -91.93427613 104.83212075 -91.95091629 100.03598404 C-91.96595519 95.63456954 -91.95740134 91.23381835 -91.93102853 86.83246296 C-91.92550196 85.25122914 -91.92815071 83.66993776 -91.94040747 82.08874179 C-92.08712575 61.56626869 -85.56804123 44.04908179 -72.28759766 28.2746582 C-71.84158203 27.68426758 -71.39556641 27.09387695 -70.93603516 26.4855957 C-59.85705237 12.29672301 -40.4611253 3.53486233 -23.03010941 0.70638466 C-15.38072908 -0.17602803 -7.69055168 -0.01154804 0 0 Z M-34.13134766 65.5637207 C-38.04254989 71.35124293 -38.41034528 77.10035471 -38.42740536 83.98208237 C-38.43035678 84.63434496 -38.4333082 85.28660756 -38.43634906 85.95863569 C-38.44500214 88.14144264 -38.44661722 90.32419637 -38.44822693 92.50701904 C-38.45296048 94.08899505 -38.45811174 95.67096986 -38.46364456 97.25294328 C-38.47752606 101.59828264 -38.48512721 105.94361365 -38.49161756 110.28896952 C-38.49799678 114.01643197 -38.50806557 117.74388075 -38.51817822 121.47133467 C-38.55146674 133.74800279 -38.57301385 146.02467922 -38.59137806 158.30137765 C-38.5961747 161.49789698 -38.60115779 164.69441597 -38.60618329 167.89093494 C-38.63714905 187.74444094 -38.66383123 207.59794987 -38.68060207 227.45147324 C-38.68455149 232.04780838 -38.68855451 236.64414348 -38.69262695 241.24047852 C-38.69363531 242.38285847 -38.69464368 243.52523843 -38.69568259 244.70223597 C-38.71269598 263.21529687 -38.75381535 281.72822427 -38.80464994 300.24121997 C-38.85641799 319.25052641 -38.88554297 338.25976414 -38.89279896 357.26914048 C-38.89746145 367.9413615 -38.91221593 378.61336362 -38.95254326 389.28551483 C-38.98683903 398.3723835 -39.00078421 407.45899375 -38.98811912 416.54592344 C-38.98229178 421.18122355 -38.9861616 425.81597705 -39.01628876 430.45119476 C-39.04366531 434.69788697 -39.0431425 438.94364459 -39.02077831 443.19035771 C-39.01755774 444.72333441 -39.02441012 446.25637385 -39.04257553 447.78924629 C-39.15684749 458.05768972 -37.81852732 465.58610036 -30.43887991 473.1760633 C-23.48065138 479.64891153 -17.16795849 480.71580692 -7.92755127 480.67579651 C-6.77791861 480.68259318 -5.62828596 480.68938985 -4.44381595 480.69639248 C-1.26133637 480.71207869 1.92082283 480.71435062 5.1033287 480.71080935 C8.53906634 480.71019629 11.97472856 480.72676359 15.41043091 480.74098206 C22.13871571 480.76588174 28.86692165 480.77414569 35.59524867 480.77581919 C41.06604601 480.77724574 46.53681738 480.78341531 52.00760651 480.79292107 C67.52669718 480.81933639 83.04572566 480.83318003 98.56483898 480.83092964 C99.40115207 480.83080978 100.23746517 480.83068991 101.09912109 480.83056641 C101.93645835 480.83044376 102.7737956 480.83032112 103.63650671 480.83019476 C117.20271605 480.82897575 130.76867544 480.8576758 144.33481249 480.89998151 C158.27264149 480.94310244 172.21034867 480.9637904 186.14824605 480.96120018 C193.97001912 480.96020522 201.79153021 480.968404 209.6132431 481.00073433 C216.27372795 481.02808884 222.9338321 481.03454352 229.59434888 481.01420606 C232.99040868 481.00442862 236.38514452 481.00744623 239.78123093 481.03026581 C243.46961053 481.05344153 247.15608249 481.03948556 250.84442139 481.01637268 C252.44046082 481.03951871 252.44046082 481.03951871 254.06874347 481.06313235 C262.43914424 480.9474808 268.5760517 478.26453684 274.62893367 472.42599303 C281.00576962 465.50258202 282.14957242 459.31998864 282.07316589 450.15103149 C282.07572917 449.0270116 282.07829244 447.9029917 282.08093339 446.7449106 C282.08587653 442.97684872 282.069369 439.20918711 282.05297852 435.44116211 C282.05213236 432.74079485 282.05247505 430.04045215 282.05430603 427.34008789 C282.05587791 421.52554808 282.04647766 415.71110938 282.02959251 409.896595 C282.00519549 401.48983461 281.99739653 393.08312304 281.99362854 384.67633109 C281.98706516 371.03639029 281.96710707 357.39650335 281.9387207 343.7565918 C281.9111772 330.50789662 281.88994505 317.25921608 281.87719727 304.01049805 C281.8764091 303.1936376 281.87562092 302.37677715 281.87480887 301.53516336 C281.87089371 297.43715173 281.8671026 293.33914 281.86337316 289.24112821 C281.83228078 255.25226581 281.77944806 221.26346861 281.71240234 187.2746582 C280.61152283 187.27101257 279.51064331 187.26736694 278.37640381 187.26361084 C267.96093738 187.22654083 257.54576333 187.16863774 247.13051987 187.09075546 C241.77694286 187.05138115 236.42352787 187.01914354 231.06982422 187.00366211 C225.89543775 186.9884292 220.721497 186.95386665 215.54730988 186.90634918 C213.5811782 186.89160353 211.61498287 186.88362114 209.64879608 186.88277435 C196.59717662 186.87150849 184.97620125 186.36875916 173.77490234 178.7746582 C172.92025391 178.2074707 172.06560547 177.6402832 171.18505859 177.0559082 C160.70347123 169.50519124 153.36586419 158.78724246 150.18421936 146.18208313 C149.55449438 142.30159973 149.53479312 138.45774062 149.50708008 134.53710938 C149.49718048 133.66831146 149.48728088 132.79951355 149.4770813 131.90438843 C149.44557724 129.04216201 149.42075284 126.17991902 149.39599609 123.31762695 C149.37541698 121.32936683 149.35442026 119.34111099 149.33302307 117.3528595 C149.27790126 112.1267138 149.22844843 106.90052926 149.18017578 101.67431641 C149.12988846 96.338588 149.07424017 91.0029158 149.01904297 85.66723633 C148.9115824 75.20309167 148.81011065 64.73889815 148.71240234 54.2746582 C126.98072511 54.13434607 105.24912282 54.02861757 83.51708412 53.96378517 C73.42594869 53.93287893 63.33509512 53.8907603 53.24414062 53.82202148 C44.44636637 53.76212041 35.64879629 53.72348557 26.85082376 53.71012723 C22.19449795 53.70232155 17.53875614 53.68404436 12.88261795 53.64027786 C8.49450301 53.59936727 4.1072092 53.58702608 -0.28107834 53.59601212 C-1.88625561 53.59436967 -3.49146208 53.58254433 -5.09647369 53.55942535 C-17.5201953 53.38934079 -26.10543867 55.624659 -34.13134766 65.5637207 Z " fill="#480BA6" transform="translate(134.28759765625,37.725341796875)"/>
<path d="M0 0 C6.79360379 3.86645617 11.71092718 8.64316602 14.6875 15.9375 C15.05148125 18.79291877 15.24230001 21.33850426 15.25 24.1875 C15.30510742 25.23744141 15.30510742 25.23744141 15.36132812 26.30859375 C15.43501489 35.29837898 9.83662844 41.9567822 3.90866089 48.23773193 C2.01219705 50.16378908 0.10727967 52.07752072 -1.80908203 53.98339844 C-2.86518383 55.04821451 -3.92045318 56.11385677 -4.97496033 57.18025208 C-7.81918093 60.05105845 -10.67587457 62.90912571 -13.53595591 65.76412106 C-15.93245228 68.15846498 -18.32293987 70.55876527 -20.71357906 72.95895505 C-26.35843404 78.62593267 -32.01379371 84.28227273 -37.67578125 89.93212891 C-43.49519571 95.73946511 -49.29601262 101.56491471 -55.08805382 107.39954162 C-60.08212053 112.42895696 -65.08785094 117.44655528 -70.10286796 122.45508027 C-73.08894591 125.43755112 -76.0705144 128.42418588 -79.0407753 131.42241669 C-81.83624047 134.24322112 -84.64612063 137.04886107 -87.46721077 139.84403038 C-88.4929831 140.86511159 -89.51379605 141.89120647 -90.52886391 142.92292976 C-98.46344544 150.97812412 -106.76787233 157.83207141 -118.4375 158.625 C-128.50374415 158.66876628 -135.82546027 151.96066555 -142.56674862 145.30479908 C-144.41647247 143.4512002 -146.25343744 141.5855365 -148.08984375 139.71875 C-149.39020639 138.4141295 -150.69153902 137.11047518 -151.99378967 135.80773926 C-154.70683195 133.08856149 -157.41145176 130.36137843 -160.10961914 127.62744141 C-163.56312628 124.12850681 -167.03185526 120.64516877 -170.5062933 117.16703033 C-173.18798247 114.48090882 -175.86419478 111.78938847 -178.53851509 109.09593201 C-179.81607323 107.80951781 -181.09469221 106.52415621 -182.374403 105.23988342 C-184.15965399 103.44556487 -185.93806696 101.64474262 -187.71459961 99.84179688 C-188.23979691 99.31593491 -188.7649942 98.79007294 -189.30610657 98.24827576 C-195.62351638 91.80123007 -197.44729422 86.98624485 -197.5625 78.125 C-197.44986417 68.22328646 -194.37378417 62.84290593 -187.3125 55.9375 C-180.32931182 50.90310852 -172.64480726 51.431644 -164.3125 51.9375 C-155.28365245 53.69176806 -147.968405 63.13353812 -141.75 69.40234375 C-141.07324219 70.08051651 -140.39648438 70.75868927 -139.69921875 71.45741272 C-137.56792325 73.59424305 -135.44015782 75.73454823 -133.3125 77.875 C-131.85570221 79.33682123 -130.39867299 80.79841187 -128.94140625 82.25976562 C-125.39576027 85.816354 -121.85327261 89.37606016 -118.3125 92.9375 C-112.85927921 88.39791897 -107.83541402 83.57003305 -102.85791016 78.51708984 C-102.04229111 77.69358536 -101.22667206 76.87008087 -100.38633728 76.0216217 C-98.62515957 74.24331975 -96.86502232 72.46398689 -95.10582352 70.68372726 C-92.31741943 67.86390978 -89.5243121 65.0488085 -86.72909546 62.23574829 C-85.76823611 61.26862912 -84.80737681 60.3015099 -83.84651756 59.33439064 C-83.12524496 58.60844385 -83.12524496 58.60844385 -82.3894012 57.86783147 C-75.89264396 51.32821955 -69.40053174 44.78409863 -62.92285156 38.22558594 C-58.53876282 33.78688661 -54.14573077 29.35725221 -49.7424053 24.93763316 C-47.41869465 22.60458966 -45.10118117 20.26589016 -42.79176712 17.9186821 C-40.21464028 15.30044181 -37.62224513 12.69826447 -35.02587891 10.09912109 C-34.27442093 9.32811569 -33.52296295 8.55711029 -32.74873352 7.76274109 C-23.59213424 -1.32458106 -12.40808602 -5.69489662 0 0 Z " fill="#480BA6" transform="translate(347.3125,307.0625)"/>
<path d="M0 0 C7.87700252 6.75171645 7.87700252 6.75171645 11.00756836 9.87817383 C11.70776596 10.57521927 12.40796356 11.27226471 13.12937927 11.99043274 C13.85883255 12.72191025 14.58828583 13.45338776 15.33984375 14.20703125 C16.10680069 14.97303146 16.87375763 15.73903168 17.66395569 16.52824402 C19.27109547 18.13470736 20.87698941 19.74241795 22.48168945 21.35131836 C24.95084704 23.82587623 27.42535325 26.29499643 29.90039062 28.76367188 C31.4638628 30.32780406 33.02702518 31.892246 34.58984375 33.45703125 C35.33346664 34.19862991 36.07708954 34.94022858 36.84324646 35.70429993 C37.52137894 36.38558456 38.19951141 37.0668692 38.89819336 37.76879883 C39.79918007 38.67097893 39.79918007 38.67097893 40.71836853 39.59138489 C42 41 42 41 42 42 C28.14 42 14.28 42 0 42 C0 28.14 0 14.28 0 0 Z " fill="#FCFCFD" transform="translate(336,130)"/>
</svg>
